# xmcd CD database file
#
# Track frame offsets:
#	150
#	17407
#	35833
#
# Disc length: 708 seconds
#
# Revision: 3
# Processed by: cddbd v1.5.2PL0 Copyright (c) Steve Scherf et al.
# Submitted via: CDex 1.40Beta8
#
DISCID=1b02c203
DTITLE=H-Blockx - Countdown to Insanity
DYEAR=2007
DGENRE=Rock
TTITLE0=H-Blockx - Countdown to Insanity
TTITLE1=H-Blockx - Countdown to Insanity - Track 2
TTITLE2=H-Blockx - Countdown to Insanity - Remix
EXTD=YEAR: 2007 ID3G: 17
EXTT0=
EXTT1=
EXTT2=
PLAYORDER=
